<?xml version="1.0" encoding="UTF-8"?>
<!DOCTYPE svg PUBLIC "-//W3C//DTD SVG 1.1//EN" "http://www.w3.org/Graphics/SVG/1.1/DTD/svg11.dtd">
<svg version="1.2" width="176.19mm" height="47.33mm" viewBox="1554 1200 17619 4733" preserveAspectRatio="xMidYMid" fill-rule="evenodd" stroke-width="28.222" stroke-linejoin="round" xmlns="http://www.w3.org/2000/svg" xmlns:ooo="http://xml.openoffice.org/svg/export" xmlns:xlink="http://www.w3.org/1999/xlink" xmlns:presentation="http://sun.com/xmlns/staroffice/presentation" xmlns:smil="http://www.w3.org/2001/SMIL20/" xmlns:anim="urn:oasis:names:tc:opendocument:xmlns:animation:1.0" xml:space="preserve">
 <defs class="EmbeddedBulletChars">
  <g id="bullet-char-template-57356" transform="scale(0.00048828125,-0.00048828125)">
   <path d="M 580,1141 L 1163,571 580,0 -4,571 580,1141 Z"/>
  </g>
  <g id="bullet-char-template-57354" transform="scale(0.00048828125,-0.00048828125)">
   <path d="M 8,1128 L 1137,1128 1137,0 8,0 8,1128 Z"/>
  </g>
  <g id="bullet-char-template-10146" transform="scale(0.00048828125,-0.00048828125)">
   <path d="M 174,0 L 602,739 174,1481 1456,739 174,0 Z M 1358,739 L 309,1346 659,739 1358,739 Z"/>
  </g>
  <g id="bullet-char-template-10132" transform="scale(0.00048828125,-0.00048828125)">
   <path d="M 2015,739 L 1276,0 717,0 1260,543 174,543 174,936 1260,936 717,1481 1274,1481 2015,739 Z"/>
  </g>
  <g id="bullet-char-template-10007" transform="scale(0.00048828125,-0.00048828125)">
   <path d="M 0,-2 C -7,14 -16,27 -25,37 L 356,567 C 262,823 215,952 215,954 215,979 228,992 255,992 264,992 276,990 289,987 310,991 331,999 354,1012 L 381,999 492,748 772,1049 836,1024 860,1049 C 881,1039 901,1025 922,1006 886,937 835,863 770,784 769,783 710,716 594,584 L 774,223 C 774,196 753,168 711,139 L 727,119 C 717,90 699,76 672,76 641,76 570,178 457,381 L 164,-76 C 142,-110 111,-127 72,-127 30,-127 9,-110 8,-76 1,-67 -2,-52 -2,-32 -2,-23 -1,-13 0,-2 Z"/>
  </g>
  <g id="bullet-char-template-10004" transform="scale(0.00048828125,-0.00048828125)">
   <path d="M 285,-33 C 182,-33 111,30 74,156 52,228 41,333 41,471 41,549 55,616 82,672 116,743 169,778 240,778 293,778 328,747 346,684 L 369,508 C 377,444 397,411 428,410 L 1163,1116 C 1174,1127 1196,1133 1229,1133 1271,1133 1292,1118 1292,1087 L 1292,965 C 1292,929 1282,901 1262,881 L 442,47 C 390,-6 338,-33 285,-33 Z"/>
  </g>
  <g id="bullet-char-template-9679" transform="scale(0.00048828125,-0.00048828125)">
   <path d="M 813,0 C 632,0 489,54 383,161 276,268 223,411 223,592 223,773 276,916 383,1023 489,1130 632,1184 813,1184 992,1184 1136,1130 1245,1023 1353,916 1407,772 1407,592 1407,412 1353,268 1245,161 1136,54 992,0 813,0 Z"/>
  </g>
  <g id="bullet-char-template-8226" transform="scale(0.00048828125,-0.00048828125)">
   <path d="M 346,457 C 273,457 209,483 155,535 101,586 74,649 74,723 74,796 101,859 155,911 209,963 273,989 346,989 419,989 480,963 531,910 582,859 608,796 608,723 608,648 583,586 532,535 482,483 420,457 346,457 Z"/>
  </g>
  <g id="bullet-char-template-8211" transform="scale(0.00048828125,-0.00048828125)">
   <path d="M -4,459 L 1135,459 1135,606 -4,606 -4,459 Z"/>
  </g>
  <g id="bullet-char-template-61548" transform="scale(0.00048828125,-0.00048828125)">
   <path d="M 173,740 C 173,903 231,1043 346,1159 462,1274 601,1332 765,1332 928,1332 1067,1274 1183,1159 1299,1043 1357,903 1357,740 1357,577 1299,437 1183,322 1067,206 928,148 765,148 601,148 462,206 346,322 231,437 173,577 173,740 Z"/>
  </g>
 </defs>
 <g class="Page">
  <g class="com.sun.star.drawing.ClosedBezierShape">
   <g id="id3">
    <rect class="BoundingBox" stroke="none" fill="none" x="4150" y="1779" width="13164" height="2095"/>
    <path fill="rgb(255,140,0)" stroke="none" d="M 5780,3244 C 7090,2905 8587,2597 10122,2351 11657,2105 13176,1929 14525,1842 15173,1800 15771,1779 16306,1779 16672,1779 17009,1789 17313,1808 17304,1855 17300,1903 17300,1951 17300,1953 17300,1955 17300,1958 17000,1939 16668,1929 16306,1929 15774,1929 15179,1950 14535,1992 13190,2079 11676,2254 10146,2499 8616,2745 7123,3052 5818,3389 5207,3548 4647,3710 4150,3873 L 4150,3715 C 4638,3556 5185,3398 5780,3244 Z"/>
   </g>
  </g>
  <g class="Group">
   <g class="com.sun.star.drawing.ClosedBezierShape">
    <g id="id4">
     <rect class="BoundingBox" stroke="none" fill="none" x="2403" y="2575" width="2175" height="2354"/>
     <path fill="rgb(0,0,0)" stroke="none" d="M 2403,3782 C 2403,3405 2504,3110 2707,2896 2909,2683 3171,2576 3491,2576 3701,2576 3890,2626 4059,2726 4227,2827 4356,2966 4444,3146 4532,3325 4577,3528 4577,3756 4577,3986 4530,4193 4437,4375 4344,4556 4212,4694 4042,4788 3871,4881 3687,4928 3490,4928 3276,4928 3085,4876 2916,4773 2748,4670 2620,4529 2533,4350 2446,4171 2403,3982 2403,3782 Z M 2713,3787 C 2713,4061 2787,4277 2934,4434 3081,4592 3266,4671 3488,4671 3715,4671 3901,4591 4047,4432 4193,4273 4266,4047 4266,3754 4266,3569 4235,3408 4173,3270 4110,3132 4019,3025 3898,2949 3778,2873 3643,2835 3493,2835 3280,2835 3097,2908 2943,3054 2790,3201 2713,3445 2713,3787 Z"/>
    </g>
   </g>
   <g class="com.sun.star.drawing.ClosedBezierShape">
    <g id="id5">
     <rect class="BoundingBox" stroke="none" fill="none" x="4926" y="3205" width="1431" height="2316"/>
     <path fill="rgb(0,0,0)" stroke="none" d="M 4927,5520 L 4927,3242 5181,3242 5181,3456 C 5241,3372 5309,3310 5384,3268 5460,3226 5551,3205 5659,3205 5799,3205 5923,3241 6031,3314 6138,3386 6219,3488 6274,3620 6329,3752 6356,3896 6356,4053 6356,4222 6326,4373 6266,4508 6205,4643 6117,4746 6002,4818 5887,4890 5766,4926 5639,4926 5546,4926 5462,4906 5388,4867 5314,4828 5254,4778 5206,4718 L 5206,5520 4927,5520 Z M 5180,4075 C 5180,4287 5223,4443 5308,4545 5394,4646 5498,4697 5620,4697 5744,4697 5850,4644 5939,4539 6027,4434 6071,4272 6071,4052 6071,3842 6028,3685 5942,3580 5855,3476 5752,3424 5632,3424 5514,3424 5408,3479 5317,3590 5225,3701 5180,3863 5180,4075 Z"/>
    </g>
   </g>
   <g class="com.sun.star.drawing.ClosedBezierShape">
    <g id="id6">
     <rect class="BoundingBox" stroke="none" fill="none" x="6599" y="3204" width="1519" height="1723"/>
     <path fill="rgb(0,0,0)" stroke="none" d="M 7819,4358 L 8107,4394 C 8062,4563 7978,4693 7855,4786 7732,4879 7575,4926 7383,4926 7143,4926 6952,4852 6811,4704 6670,4555 6599,4347 6599,4079 6599,3802 6670,3587 6813,3434 6956,3281 7141,3205 7368,3205 7588,3205 7768,3280 7907,3430 8047,3580 8117,3790 8117,4062 8117,4079 8116,4103 8115,4136 L 6887,4136 C 6898,4317 6949,4456 7041,4552 7133,4648 7248,4697 7385,4697 7487,4697 7575,4670 7647,4616 7719,4562 7777,4476 7819,4358 Z M 6903,3907 L 7822,3907 C 7810,3769 7775,3665 7717,3596 7628,3488 7513,3435 7371,3435 7243,3435 7135,3477 7048,3563 6960,3649 6912,3763 6903,3907 Z"/>
    </g>
   </g>
   <g class="com.sun.star.drawing.ClosedBezierShape">
    <g id="id7">
     <rect class="BoundingBox" stroke="none" fill="none" x="8458" y="3205" width="1339" height="1685"/>
     <path fill="rgb(0,0,0)" stroke="none" d="M 8458,4889 L 8458,3242 8709,3242 8709,3476 C 8830,3295 9005,3205 9233,3205 9332,3205 9424,3223 9507,3259 9590,3294 9652,3341 9694,3399 9735,3457 9764,3525 9780,3605 9791,3657 9796,3747 9796,3876 L 9796,4889 9517,4889 9517,3887 C 9517,3774 9506,3689 9484,3632 9463,3576 9424,3531 9369,3497 9313,3464 9249,3447 9174,3447 9055,3447 8953,3485 8866,3560 8780,3636 8737,3779 8737,3990 L 8737,4889 8458,4889 Z"/>
    </g>
   </g>
   <g class="com.sun.star.drawing.ClosedBezierShape">
    <g id="id8">
     <rect class="BoundingBox" stroke="none" fill="none" x="10171" y="2577" width="2011" height="2352"/>
     <path fill="rgb(0,89,156)" stroke="none" d="M 11880,4092 L 12181,4168 C 12118,4415 12005,4604 11841,4733 11677,4863 11477,4928 11240,4928 10995,4928 10796,4878 10643,4778 10489,4679 10372,4534 10292,4345 10212,4156 10172,3953 10172,3735 10172,3499 10217,3292 10308,3116 10398,2940 10527,2806 10694,2714 10861,2623 11044,2577 11245,2577 11472,2577 11663,2635 11818,2751 11973,2866 12081,3029 12142,3239 L 11846,3309 C 11794,3144 11717,3023 11617,2948 11517,2872 11391,2834 11239,2834 11064,2834 10918,2876 10801,2960 10683,3044 10601,3156 10553,3297 10506,3438 10482,3584 10482,3734 10482,3927 10510,4096 10567,4240 10623,4384 10710,4492 10829,4564 10948,4635 11077,4671 11215,4671 11384,4671 11526,4622 11643,4525 11760,4428 11839,4283 11880,4092 Z"/>
    </g>
   </g>
   <g class="com.sun.star.drawing.ClosedBezierShape">
    <g id="id9">
     <rect class="BoundingBox" stroke="none" fill="none" x="12544" y="2616" width="2170" height="2274"/>
     <path fill="rgb(0,89,156)" stroke="none" d="M 12544,4889 L 12544,2616 12997,2616 13535,4226 C 13584,4375 13620,4488 13643,4562 13669,4479 13709,4358 13764,4198 L 14308,2616 14713,2616 14713,4889 14423,4889 14423,2987 13763,4889 13491,4889 12834,2954 12834,4889 12544,4889 Z"/>
    </g>
   </g>
   <g class="com.sun.star.drawing.ClosedBezierShape">
    <g id="id10">
     <rect class="BoundingBox" stroke="none" fill="none" x="14993" y="2616" width="2923" height="2274"/>
     <path fill="rgb(0,89,156)" stroke="none" d="M 15596,4889 L 14993,2616 15302,2616 15647,4106 C 15684,4262 15716,4417 15743,4571 15801,4328 15835,4188 15846,4151 L 16278,2616 16641,2616 16967,3766 C 17048,4052 17107,4320 17143,4571 17172,4427 17210,4263 17256,4077 L 17613,2616 17915,2616 17292,4889 17002,4889 16523,3157 C 16483,3012 16459,2924 16452,2890 16428,2995 16406,3084 16385,3157 L 15903,4889 15596,4889 Z"/>
    </g>
   </g>
  </g>
  <g class="com.sun.star.drawing.CustomShape">
   <g id="id11">
    <rect class="BoundingBox" stroke="none" fill="none" x="17400" y="1200" width="1502" height="1502"/>
    <path fill="rgb(255,140,0)" stroke="none" d="M 17400,1950 L 17830,2006 17830,1894 17400,1950 Z"/>
    <path fill="rgb(255,140,0)" stroke="none" d="M 17619,2481 L 17963,2216 17884,2137 17619,2481 Z"/>
    <path fill="rgb(255,140,0)" stroke="none" d="M 18150,2701 L 18206,2270 18094,2270 18150,2701 Z"/>
    <path fill="rgb(255,140,0)" stroke="none" d="M 18681,2481 L 18416,2137 18337,2216 18681,2481 Z"/>
    <path fill="rgb(255,140,0)" stroke="none" d="M 18901,1950 L 18470,1894 18470,2006 18901,1950 Z"/>
    <path fill="rgb(255,140,0)" stroke="none" d="M 18681,1419 L 18337,1684 18416,1763 18681,1419 Z"/>
    <path fill="rgb(255,140,0)" stroke="none" d="M 18150,1200 L 18094,1630 18206,1630 18150,1200 Z"/>
    <path fill="rgb(255,140,0)" stroke="none" d="M 17619,1419 L 17884,1763 17963,1684 17619,1419 Z"/>
    <path fill="rgb(255,140,0)" stroke="none" d="M 18342,1951 C 18342,1984 18333,2017 18316,2046 18299,2075 18275,2099 18246,2116 18217,2133 18184,2142 18151,2142 18117,2142 18084,2133 18055,2116 18026,2099 18002,2075 17985,2046 17968,2017 17959,1984 17959,1951 17959,1917 17968,1884 17985,1855 18002,1826 18026,1802 18055,1785 18084,1768 18117,1759 18151,1759 18184,1759 18217,1768 18246,1785 18275,1802 18299,1826 18316,1855 18333,1884 18342,1917 18342,1951 L 18342,1951 Z"/>
   </g>
  </g>
  <g class="com.sun.star.drawing.ClosedBezierShape">
   <g id="id12">
    <rect class="BoundingBox" stroke="none" fill="none" x="1554" y="2143" width="17619" height="3790"/>
    <path fill="rgb(255,140,0)" stroke="none" d="M 4150,3872 C 4117,3883 4084,3894 4051,3905 3531,4078 3083,4251 2719,4421 2548,4500 2397,4578 2267,4655 2139,4729 2031,4802 1945,4873 1863,4940 1800,5004 1759,5066 1740,5094 1726,5122 1717,5148 1708,5172 1704,5195 1704,5217 1704,5226 1705,5235 1706,5243 1710,5266 1718,5287 1730,5308 1744,5331 1763,5353 1787,5375 1842,5424 1919,5468 2017,5508 2122,5551 2249,5589 2399,5623 2552,5656 2727,5685 2925,5708 3339,5757 3843,5782 4419,5782 4952,5782 5546,5761 6191,5719 7536,5632 9050,5457 10580,5212 12110,4966 13602,4659 14908,4321 15559,4153 16153,3979 16675,3806 17195,3632 17643,3459 18007,3290 18178,3210 18329,3132 18459,3056 18587,2981 18695,2908 18781,2838 18863,2771 18925,2706 18967,2644 18986,2616 19000,2589 19009,2562 19017,2539 19022,2516 19022,2493 19022,2484 19021,2476 19020,2467 19016,2445 19008,2424 18996,2403 18982,2380 18963,2357 18939,2336 18920,2319 18899,2303 18875,2287 18897,2241 18914,2192 18927,2143 18971,2169 19008,2196 19039,2225 19075,2257 19103,2291 19124,2326 19147,2364 19161,2403 19168,2443 19171,2460 19172,2476 19172,2493 19172,2532 19165,2571 19151,2612 19137,2650 19118,2688 19092,2728 19043,2800 18971,2876 18876,2954 18784,3029 18671,3106 18535,3186 18401,3264 18246,3344 18070,3426 17702,3597 17248,3773 16722,3948 16197,4123 15601,4297 14945,4467 13636,4806 12138,5114 10603,5360 9068,5606 7550,5781 6200,5869 5552,5911 4955,5932 4419,5932 3836,5932 3327,5907 2907,5857 2704,5833 2524,5804 2367,5769 2207,5734 2071,5693 1960,5647 1843,5599 1752,5545 1687,5486 1651,5454 1623,5420 1602,5385 1579,5347 1564,5308 1558,5267 1555,5251 1554,5234 1554,5217 1554,5179 1561,5139 1575,5099 1588,5061 1608,5022 1634,4983 1683,4911 1754,4835 1850,4757 1942,4682 2055,4604 2191,4525 2325,4447 2480,4367 2656,4285 3024,4113 3478,3938 4004,3763 4052,3747 4101,3731 4150,3715 L 4150,3872 Z"/>
   </g>
  </g>
 </g>
</svg>